<svg xmlns="http://www.w3.org/2000/svg" id="Livello_1" data-name="Livello 1" viewBox="0 0 1000 1000"><defs><style>      .cls-1 {        fill: #ed6e33;      }      .cls-2 {        fill: #fff;      }      .cls-3 {        fill: #fbbc4c;      }      .cls-4 {        fill: #317390;      }      .cls-5 {        fill: #e72958;      }      .cls-6 {        fill: #00a79d;      }      .cls-7 {        fill: #603874;      }      .cls-8 {        fill: #ea5556;      }      .cls-9 {        fill: #df1d1b;      }    </style></defs><g><path class="cls-2" d="m428.29,717.2c-150.27-23.39-268.47-140.75-292.93-290.85-3.06-18.77-4.62-37.75-4.66-56.76.38-133.26,75.68-254.99,194.76-314.82l9.91-4.85h.5c46.02-21.24,96.12-32.2,146.81-32.1,12.21-.04,24.42.62,36.55,1.98,68.88,6.88,134.14,34.16,187.43,78.36l1.19.99c12.78,11.29,24.37,22.39,35.46,33.98,116.89,122.04,151.57,271.33,100.15,431.91-65.68,205.16-331.56,435.87-416.56,416.06,34.28-130.76,18.03-215.06,1.59-264.4"></path><path class="cls-2" d="m437.64,1000c-5.25,0-10.19-.52-14.78-1.6l-17.8-4.15,4.64-17.67c24.08-91.84,25.84-173.74,5.26-243.61-153.21-28.35-271.96-149.17-297.15-303.75-3.19-19.63-4.84-39.67-4.89-59.58.4-140.85,78.79-267.56,204.55-330.75l14.53-6.74C379.11,11.03,431.12-.74,482.71.04c12.8-.09,25.79.67,38.51,2.1,72.46,7.23,140.58,35.7,196.8,82.34l1.6,1.35c13.26,11.73,25.23,23.18,36.55,35.02,121.69,127.05,157.73,282.53,104.22,449.63-63.58,198.61-312.21,429.52-422.73,429.54Zm7.71-288.93c24.38,73.16,25.76,158.01,4.16,252.47,87.95-16.25,316.26-214.17,377.01-403.91,49.29-153.92,16.08-297.14-96.06-414.2-10.63-11.13-21.88-21.91-34.39-32.96-51.51-42.72-113.01-68.43-178.61-74.98-11.61-1.3-23.11-2.02-34.74-1.9h-.61c-47.66,0-95.61,10.53-138.8,30.47l-10.03,4.67c-113.56,57.07-184.44,171.63-184.8,298.91.04,17.93,1.53,36.09,4.42,53.86,23.29,142.9,135.06,253.88,278.12,276.13l-2.66,17.1,17-5.66Z"></path></g><path class="cls-1" d="m474.05,925.23h0c114.52-21.6,546.92-435.87,236.26-760.01h0c-9.91-10.6-21-20.9-32.69-31.3-46.3-38.39-103.01-62.09-162.86-68.06h0c-10.43-1.11-20.91-1.67-31.4-1.68-47.28-.03-93.92,10.95-136.21,32.1h0c-39.84,19.96-74.84,48.4-102.53,83.31h0c-30.41,38.05-51.2,82.87-60.63,130.66h0c-3.88,19.58-5.84,39.48-5.84,59.44,0,16.6,1.4,33.17,4.16,49.53h0c6.33,39.14,20.26,76.67,41.01,110.45h0c51.53,83.89,140.34,137.81,238.54,144.83h0c27.44,57.26,37.64,137.89,12.38,250.83h0m0-.79h0m0,0l246.17-746.24-245.87,746.53"></path><path class="cls-3" d="m473.56,925.13c164.54-92.72,378.91-456.98,297.19-657.97-13.44-37.56-34.1-72.12-60.82-101.74,310.86,324.33-121.65,738.31-236.16,760.01h0"></path><path class="cls-1" d="m770.25,267.16c82.32,201-132.15,565.25-297.19,658.07,8.12-7.93,153.65-148.59,216.95-331.96,55.97-162.56,47.65-358.71-176.53-527.21,60.06,5.85,116.99,29.56,163.45,68.06,11.69,9.91,22.49,20.7,32.59,31.3,26.72,29.62,47.39,64.18,60.82,101.74"></path><path class="cls-8" d="m513.98,66.06c224.18,168.41,232.5,364.75,176.43,527.21-63.2,183.76-208.72,324.03-216.85,331.86h0c62.92-84.61,110.9-179.36,141.86-280.15,52.11-180.89,36.65-407.74-269.25-548.11,42.29-21.14,88.93-32.13,136.21-32.1,10.49-.04,20.98.52,31.4,1.68"></path><path class="cls-5" d="m346.36,96.47c305.9,140.37,321.36,367.22,269.25,548.11-30.94,100.82-78.95,195.58-141.96,280.15,45.18-81.73,77.02-170.15,94.31-261.92,31.01-178.31-5.65-396.25-323.93-483.13,27.69-34.91,62.69-63.35,102.53-83.31l-.2.1Z"></path><path class="cls-9" d="m243.73,179.78c318.29,86.78,354.94,304.72,324.23,483.03-17.21,91.72-48.94,180.11-94.01,261.82v.5h0v-.59c32.85-80.55,51.75-166.11,55.87-253.01,4.46-156.82-57.26-333.05-346.72-360.98,9.42-47.79,30.22-92.61,60.63-130.66"></path><path class="cls-7" d="m183.11,310.45c289.06,27.94,350.78,204.17,346.72,360.98-4.17,86.87-23.1,172.39-55.97,252.91,4.06-11.79,41.21-130.27,23.08-249.74-18.13-119.47-92.92-241.71-315.32-255.68-5.96-35.97-5.36-72.72,1.78-108.47"></path><path class="cls-4" d="m496.64,674.6c18.13,119.47-19.02,237.75-23.08,249.84v.59c25.26-113.03,15.06-193.57-12.38-250.93-60.63-127.1-205.75-141.06-238.54-144.73-20.7-33.81-34.63-71.33-41.01-110.45,222.4,13.97,297.19,135.32,315.32,255.68"></path><path class="cls-6" d="m222.44,529.38c32.79,3.67,178.31,17.73,238.54,144.83-98.21-7.02-187.01-60.94-238.54-144.83"></path></svg>